<svg xmlns="http://www.w3.org/2000/svg" viewBox="0 0 50 50" width="14" height="14">
	<style>
		tspan { white-space:pre }
		.shp0 { fill: #000000 } 
	</style>
	<path id="Layer" class="shp0" d="M48.86 22.73C49.84 21.77 50.19 20.37 49.76 19.06C49.34 17.75 48.23 16.82 46.87 16.62L34.78 14.86C34.26 14.79 33.82 14.47 33.59 14L28.18 3.04C27.57 1.81 26.34 1.05 24.97 1.05C23.6 1.05 22.37 1.81 21.76 3.04L16.35 14C16.12 14.47 15.68 14.79 15.16 14.87L3.07 16.62C1.71 16.82 0.6 17.75 0.18 19.06C-0.25 20.37 0.1 21.77 1.08 22.73L9.83 31.26C10.21 31.62 10.38 32.15 10.29 32.66L8.22 44.7C8.04 45.76 8.32 46.79 9.01 47.61C10.07 48.87 11.93 49.26 13.42 48.48L24.23 42.79C24.69 42.55 25.26 42.56 25.71 42.79L36.52 48.48C37.05 48.75 37.61 48.89 38.19 48.89C39.24 48.89 40.25 48.42 40.93 47.61C41.62 46.79 41.9 45.76 41.72 44.7L39.65 32.66C39.56 32.15 39.73 31.62 40.11 31.26L48.86 22.73Z" />
	<g id="Layer">
	</g>
	<g id="Layer">
	</g>
	<g id="Layer">
	</g>
	<g id="Layer">
	</g>
	<g id="Layer">
	</g>
	<g id="Layer">
	</g>
	<g id="Layer">
	</g>
	<g id="Layer">
	</g>
	<g id="Layer">
	</g>
	<g id="Layer">
	</g>
	<g id="Layer">
	</g>
	<g id="Layer">
	</g>
	<g id="Layer">
	</g>
	<g id="Layer">
	</g>
	<g id="Layer">
	</g>
</svg>